<?xml version="1.0" encoding="utf-8"?>
<!-- Generator: Adobe Illustrator 19.2.1, SVG Export Plug-In . SVG Version: 6.00 Build 0)  -->
<svg version="1.1" id="Calque_1" xmlns="http://www.w3.org/2000/svg" xmlns:xlink="http://www.w3.org/1999/xlink" x="0px" y="0px"
	 viewBox="0 0 269 101" enable-background="new 0 0 269 101" xml:space="preserve">
<g>
	<path fill="none" stroke="#FFFFFF" stroke-width="3" stroke-linecap="round" stroke-linejoin="round" stroke-miterlimit="10" d="
		M19,25.1L49.7,7.4c1.9-1.1,4.3-1.1,6.2,0l30.7,17.7c1.9,1.1,3.1,3.2,3.1,5.4v35.5c0,2.2-1.2,4.3-3.1,5.4L56,89.1
		c-1.9,1.1-4.3,1.1-6.2,0L19,71.3c-1.9-1.1-3.1-3.2-3.1-5.4V30.5C15.9,28.3,17.1,26.2,19,25.1z"/>
	<g>
		<path fill="#FFFFFF" d="M172.2,31.2h2.8v14.7h0.1c0.4-1.1,2.7-4.4,7.2-4.4c6.8,0,9.4,5,9.4,12c0,6.8-3.1,12-9.4,12
			c-3.3,0-5.6-1.3-7.2-4.2H175v3.6h-2.8V31.2z M181.8,43.9c-5.2,0-6.8,5.4-6.8,9.6s1.8,9.6,6.8,9.6c5.4,0,6.8-5.1,6.8-9.6
			S187.2,43.9,181.8,43.9z"/>
		<path fill="#FFFFFF" d="M210.7,61.2L210.7,61.2c-1.3,2.7-4.5,4.2-7.4,4.2c-6.5,0-7.6-4.4-7.6-6.5c0-7.7,8.2-8.1,14.1-8.1h0.5v-1.2
			c0-3.9-1.4-5.9-5.2-5.9c-2.4,0-4.6,0.5-6.8,1.9V43c1.8-0.9,4.7-1.6,6.8-1.6c5.7,0,8.1,2.6,8.1,8.5v10.1c0,1.8,0,3.2,0.2,4.8h-2.8
			V61.2z M210.4,53.4h-0.8c-4.9,0-10.8,0.5-10.8,5.5c0,3,2.2,4.1,4.8,4.1c6.7,0,6.8-5.8,6.8-8.3V53.4z"/>
		<path fill="#FFFFFF" d="M218.2,61.6c1.7,0.9,3.8,1.4,6,1.4c2.7,0,5.1-1.5,5.1-4.1c0-5.4-11-4.6-11-11.2c0-4.5,3.7-6.3,7.5-6.3
			c1.2,0,3.6,0.3,5.7,1l-0.3,2.5c-1.5-0.7-3.5-1.1-5.1-1.1c-2.9,0-5,0.9-5,3.8c0,4.3,11.3,3.7,11.3,11.2c0,4.9-4.5,6.5-8,6.5
			c-2.2,0-4.4-0.3-6.4-1.1L218.2,61.6z"/>
		<path fill="#FFFFFF" d="M252.9,64.2c-2,0.8-4.5,1.3-6.7,1.3c-7.6,0-10.4-5.1-10.4-12c0-7,3.9-12,9.7-12c6.5,0,9.1,5.2,9.1,11.4
			v1.4h-15.7c0,4.9,2.6,8.8,7.6,8.8c2.1,0,5.1-0.9,6.4-1.7V64.2z M251.5,51.8c0-4-1.6-8-5.8-8c-4.2,0-6.7,4.2-6.7,8H251.5z"/>
	</g>
	<g>
		<path fill="#FFFFFF" d="M105.1,52.1v0.8c0.1,2.6,0.3,4.5,0.8,5.6c0.5,1.1,1.5,1.6,3.1,1.6c1.6,0,2.6-0.6,3.1-1.8
			c0.3-0.7,0.5-1.9,0.5-3.5V31h7.1v23.7c0,2.9-0.5,5.2-1.5,6.9c-1.7,2.9-4.7,4.3-9,4.3c-4.3,0-7.2-1.2-8.7-3.5s-2.2-5.5-2.2-9.5
			v-0.8H105.1z"/>
		<path fill="#FFFFFF" d="M133.8,65.1h-7.1V31h7.1V65.1z"/>
		<path fill="#FFFFFF" d="M165.2,31v6H155v28.1h-7.2V37h-10.2v-6H165.2z"/>
	</g>
</g>
</svg>
