<?xml version="1.0" encoding="utf-8"?>
<!-- Generator: Adobe Illustrator 18.1.1, SVG Export Plug-In . SVG Version: 6.00 Build 0)  -->
<svg version="1.1" id="Calque_1" xmlns="http://www.w3.org/2000/svg" xmlns:xlink="http://www.w3.org/1999/xlink" x="0px" y="0px"
	 viewBox="0 0 100 110" enable-background="new 0 0 100 110" xml:space="preserve">
<g>
	<polygon fill="none" stroke="#FFFFFF" stroke-width="2" stroke-linejoin="round" stroke-miterlimit="10" points="49.7,52.1 
		4.7,27.4 49.7,2.6 94.7,27.4 	"/>
	<polyline fill="none" stroke="#FFFFFF" stroke-width="2" stroke-linejoin="round" stroke-miterlimit="10" points="72.2,66.1 
		94.7,79 49.7,103.8 4.7,79 27.2,66.1 	"/>
	
		<line fill="none" stroke="#FFFFFF" stroke-width="2" stroke-linejoin="round" stroke-miterlimit="10" x1="4.7" y1="27.4" x2="4.7" y2="79"/>
	
		<line fill="none" stroke="#FFFFFF" stroke-width="2" stroke-linejoin="round" stroke-miterlimit="10" x1="94.7" y1="27.4" x2="94.7" y2="79"/>
</g>
<g>
	<polygon fill="none" stroke="#FFFFFF" stroke-width="2" stroke-linejoin="round" stroke-miterlimit="10" points="49.7,52.7 
		27.2,40.3 49.7,27.9 72.2,40.3 	"/>
	<polyline fill="none" stroke="#FFFFFF" stroke-width="2" stroke-linejoin="round" stroke-miterlimit="10" points="72.2,66.1 
		49.7,78.5 27.2,66.1 28.4,65.4 	"/>
	
		<line fill="none" stroke="#FFFFFF" stroke-width="2" stroke-linejoin="round" stroke-miterlimit="10" x1="27.2" y1="40.3" x2="27.2" y2="66.1"/>
	
		<line fill="none" stroke="#FFFFFF" stroke-width="2" stroke-linejoin="round" stroke-miterlimit="10" x1="72.2" y1="40.3" x2="72.2" y2="66.1"/>
</g>
<line fill="none" stroke="#FFFFFF" stroke-width="2" stroke-linecap="round" stroke-miterlimit="10" x1="49.7" y1="27.9" x2="49.7" y2="2.6"/>
<polyline fill="none" points="49.7,52.7 49.7,103.8 49.7,54.3 "/>
<line fill="none" stroke="#FFFFFF" stroke-width="2" stroke-linecap="round" stroke-miterlimit="10" x1="49.7" y1="52.1" x2="49.7" y2="103.8"/>
</svg>
